<mxfile host="Electron" modified="2024-03-29T14:44:57.515Z" agent="Mozilla/5.0 (X11; Linux x86_64) AppleWebKit/537.36 (KHTML, like Gecko) draw.io/23.1.5 Chrome/120.0.6099.109 Electron/28.1.0 Safari/537.36" etag="QN7LOG_gryybWZM1PcA6" version="23.1.5" type="device">
  <diagram name="Page-1" id="1k4oDQwEdtB_eIneYzV8">
    <mxGraphModel dx="1188" dy="3494" grid="0" gridSize="10" guides="1" tooltips="1" connect="1" arrows="1" fold="1" page="1" pageScale="1" pageWidth="850" pageHeight="1100" background="#ffffff" math="0" shadow="0">
      <root>
        <mxCell id="0" />
        <mxCell id="1" parent="0" />
        <mxCell id="wBf12aJpdh6WzyQz_9V8-1" value="" style="rounded=1;whiteSpace=wrap;html=1;arcSize=5;fillColor=#f5f5f5;fontColor=#000000;strokeColor=#666666;" parent="1" vertex="1">
          <mxGeometry x="50" y="260" width="460" height="280" as="geometry" />
        </mxCell>
        <mxCell id="wBf12aJpdh6WzyQz_9V8-2" value="&lt;div&gt;{&lt;/div&gt;&lt;div&gt;&amp;nbsp; &amp;nbsp; &quot;title&quot; : &quot;Robot Thing&quot;,&lt;br&gt;&lt;/div&gt;&lt;div&gt;&amp;nbsp; &amp;nbsp; ...&lt;/div&gt;&lt;div&gt;&amp;nbsp; &amp;nbsp; &quot;actions&quot; : {&lt;/div&gt;&lt;div&gt;&amp;nbsp; &amp;nbsp; &amp;nbsp; &amp;nbsp; &quot;goTo&quot; : {&lt;/div&gt;&lt;div&gt;&lt;span style=&quot;white-space: pre;&quot;&gt;&#x9;&lt;/span&gt;&amp;nbsp; &amp;nbsp; &quot;input&quot;: { &quot;x&quot;: …, &quot;y&quot;: … },&lt;/div&gt;&lt;div&gt;&lt;span style=&quot;white-space: pre;&quot;&gt;&#x9;&lt;/span&gt;&amp;nbsp; &amp;nbsp; &quot;forms&quot;: [{&lt;/div&gt;&lt;div&gt;&lt;br&gt;&lt;/div&gt;&lt;div&gt;&lt;span style=&quot;background-color: initial;&quot;&gt;&lt;span style=&quot;white-space: pre;&quot;&gt;&#x9;&lt;/span&gt;&lt;span style=&quot;white-space: pre;&quot;&gt;&#x9;&lt;/span&gt;&quot;op&quot;: &quot;invokeaction&quot;,&lt;/span&gt;&lt;/div&gt;&lt;div&gt;&lt;span style=&quot;background-color: initial;&quot;&gt;&lt;span style=&quot;white-space: pre;&quot;&gt;&#x9;&lt;/span&gt;&lt;span style=&quot;white-space: pre;&quot;&gt;&#x9;&lt;/span&gt;&quot;href&quot;: &quot;http://example.com/actions/goto&quot;,&lt;/span&gt;&lt;/div&gt;&lt;div&gt;&lt;span style=&quot;background-color: initial;&quot;&gt;&lt;span style=&quot;white-space: pre;&quot;&gt;&#x9;&lt;/span&gt;&lt;span style=&quot;white-space: pre;&quot;&gt;&#x9;&lt;/span&gt;&quot;contentType&quot;: &quot;application/json&quot;,&lt;/span&gt;&lt;/div&gt;&lt;div&gt;&lt;span style=&quot;background-color: initial;&quot;&gt;&lt;span style=&quot;white-space: pre;&quot;&gt;&#x9;&lt;/span&gt;&lt;span style=&quot;white-space: pre;&quot;&gt;&#x9;&lt;/span&gt;&quot;htv:methodName&quot;: &quot;POST&quot;,&lt;/span&gt;&lt;/div&gt;&lt;div&gt;&lt;span style=&quot;background-color: initial;&quot;&gt;&lt;span style=&quot;white-space: pre;&quot;&gt;&#x9;&lt;/span&gt;&lt;span style=&quot;white-space: pre;&quot;&gt;&#x9;&lt;/span&gt;// other prot. parameters&lt;/span&gt;&lt;/div&gt;&lt;div&gt;&lt;span style=&quot;background-color: initial;&quot;&gt;&lt;br&gt;&lt;/span&gt;&lt;/div&gt;&lt;div&gt;&lt;span style=&quot;white-space: pre;&quot;&gt;&#x9;&amp;nbsp;&lt;/span&gt;&amp;nbsp; &amp;nbsp;}]&lt;/div&gt;&lt;div&gt;&lt;span style=&quot;white-space: pre;&quot;&gt;&#x9;&lt;/span&gt;}&lt;/div&gt;&lt;div&gt;&amp;nbsp; &amp;nbsp; }&lt;/div&gt;&lt;div&gt;}&lt;/div&gt;" style="text;html=1;strokeColor=none;fillColor=none;align=left;verticalAlign=middle;whiteSpace=wrap;rounded=0;fontFamily=Courier New;fontColor=#000000;" parent="1" vertex="1">
          <mxGeometry x="60" y="290" width="525" height="220" as="geometry" />
        </mxCell>
        <mxCell id="wBf12aJpdh6WzyQz_9V8-3" value="Thing Description" style="text;html=1;align=center;verticalAlign=middle;resizable=0;points=[];autosize=1;strokeColor=none;fillColor=none;fontColor=#000000;" parent="1" vertex="1">
          <mxGeometry x="50" y="230" width="120" height="30" as="geometry" />
        </mxCell>
        <mxCell id="wBf12aJpdh6WzyQz_9V8-24" value="Binding to a Protocol and/or Content Type" style="text;html=1;strokeColor=none;fillColor=none;align=center;verticalAlign=middle;whiteSpace=wrap;rounded=0;fontFamily=Helvetica;fontColor=#000000;" parent="1" vertex="1">
          <mxGeometry x="536" y="454" width="253" height="60" as="geometry" />
        </mxCell>
        <mxCell id="wBf12aJpdh6WzyQz_9V8-4" value="" style="rounded=1;whiteSpace=wrap;html=1;fillColor=none;strokeColor=#FF8000;strokeWidth=3;fontColor=#000000;" parent="1" vertex="1">
          <mxGeometry x="160" y="375" width="325" height="90" as="geometry" />
        </mxCell>
        <mxCell id="wBf12aJpdh6WzyQz_9V8-39" value="" style="endArrow=classic;html=1;strokeColor=#000000;strokeWidth=2;fontFamily=Helvetica;fontSize=10;fontColor=#000000;startSize=6;curved=1;exitX=0.5;exitY=1;exitDx=0;exitDy=0;" parent="1" source="wBf12aJpdh6WzyQz_9V8-1" edge="1">
          <mxGeometry width="50" height="50" relative="1" as="geometry">
            <mxPoint x="270" y="562" as="sourcePoint" />
            <mxPoint x="280" y="640" as="targetPoint" />
          </mxGeometry>
        </mxCell>
        <mxCell id="wBf12aJpdh6WzyQz_9V8-40" value="Expected Behavior from Thing and Consumer" style="text;html=1;align=center;verticalAlign=middle;whiteSpace=wrap;rounded=0;fontSize=10;fontFamily=Helvetica;fillColor=#FFFFFF;opacity=95;fontColor=#000000;" parent="1" vertex="1">
          <mxGeometry x="175" y="562" width="210" height="30" as="geometry" />
        </mxCell>
        <mxCell id="jJkjIGe1HoIqkJ53nlz0-1" value="" style="endArrow=classic;html=1;entryX=0;entryY=0;entryDx=0;entryDy=25;entryPerimeter=0;exitX=0.053;exitY=1.009;exitDx=0;exitDy=0;exitPerimeter=0;curved=1;fontColor=#000000;strokeColor=#000000;" parent="1" source="wBf12aJpdh6WzyQz_9V8-1" target="wBf12aJpdh6WzyQz_9V8-28" edge="1">
          <mxGeometry width="50" height="50" relative="1" as="geometry">
            <mxPoint x="50" y="618" as="sourcePoint" />
            <mxPoint x="100" y="568" as="targetPoint" />
            <Array as="points">
              <mxPoint x="80" y="630" />
            </Array>
          </mxGeometry>
        </mxCell>
        <mxCell id="jJkjIGe1HoIqkJ53nlz0-2" value="describes" style="text;html=1;strokeColor=none;fillColor=none;align=center;verticalAlign=middle;whiteSpace=wrap;rounded=0;fontSize=10;fontColor=#000000;" parent="1" vertex="1">
          <mxGeometry x="80" y="577" width="60" height="30" as="geometry" />
        </mxCell>
        <mxCell id="wBf12aJpdh6WzyQz_9V8-28" value="" style="shape=cube;whiteSpace=wrap;html=1;boundedLbl=1;backgroundOutline=1;darkOpacity=0.05;darkOpacity2=0.1;strokeColor=#007FFF;strokeWidth=3;fontFamily=Helvetica;fontSize=10;fillColor=#FFFFFF;size=8;fontColor=#000000;" parent="1" vertex="1">
          <mxGeometry x="119" y="630" width="60" height="58" as="geometry" />
        </mxCell>
        <mxCell id="wBf12aJpdh6WzyQz_9V8-29" value="" style="shape=cube;whiteSpace=wrap;html=1;boundedLbl=1;backgroundOutline=1;darkOpacity=0.05;darkOpacity2=0.1;strokeColor=#FF6666;strokeWidth=3;fontFamily=Helvetica;fontSize=10;fillColor=#FFFFFF;size=18;flipH=1;fontColor=#000000;" parent="1" vertex="1">
          <mxGeometry x="391.5" y="628" width="40" height="58" as="geometry" />
        </mxCell>
        <mxCell id="wBf12aJpdh6WzyQz_9V8-30" value="Consumer" style="text;html=1;align=center;verticalAlign=middle;resizable=0;points=[];autosize=1;strokeColor=none;fillColor=none;fontSize=10;fontFamily=Helvetica;fontColor=#000000;" parent="1" vertex="1">
          <mxGeometry x="376.5" y="599" width="70" height="30" as="geometry" />
        </mxCell>
        <mxCell id="wBf12aJpdh6WzyQz_9V8-31" value="Thing" style="text;html=1;align=center;verticalAlign=middle;resizable=0;points=[];autosize=1;strokeColor=none;fillColor=none;fontSize=10;fontFamily=Helvetica;fontColor=#007fff;" parent="1" vertex="1">
          <mxGeometry x="124" y="598" width="50" height="30" as="geometry" />
        </mxCell>
        <mxCell id="wBf12aJpdh6WzyQz_9V8-32" value="" style="endArrow=none;dashed=1;html=1;strokeWidth=2;strokeColor=#FF6666;fontFamily=Helvetica;fontSize=10;startSize=6;curved=1;fontColor=#000000;" parent="1" edge="1">
          <mxGeometry width="50" height="50" relative="1" as="geometry">
            <mxPoint x="411" y="960" as="sourcePoint" />
            <mxPoint x="411.5" y="688" as="targetPoint" />
          </mxGeometry>
        </mxCell>
        <mxCell id="wBf12aJpdh6WzyQz_9V8-33" value="" style="endArrow=none;dashed=1;html=1;strokeWidth=2;strokeColor=#007FFF;fontFamily=Helvetica;fontSize=10;startSize=6;curved=1;fontColor=#000000;" parent="1" edge="1">
          <mxGeometry width="50" height="50" relative="1" as="geometry">
            <mxPoint x="150" y="960" as="sourcePoint" />
            <mxPoint x="150" y="686" as="targetPoint" />
          </mxGeometry>
        </mxCell>
        <mxCell id="LsrXWWI1KCtOwhEkaV5J-3" value="Decide to move robot&lt;br&gt;to a position" style="text;whiteSpace=wrap;html=1;fontSize=8;fontFamily=Courier New;fillColor=#FFFFFF;gradientColor=none;opacity=90;strokeColor=#FF6666;fontColor=#000000;" parent="1" vertex="1">
          <mxGeometry x="359.75" y="699" width="103.5" height="33" as="geometry" />
        </mxCell>
        <mxCell id="LsrXWWI1KCtOwhEkaV5J-4" value="&lt;div style=&quot;font-size: 8px;&quot;&gt;Execute movement&lt;/div&gt;" style="text;whiteSpace=wrap;html=1;fontSize=8;fontFamily=Courier New;fillColor=#FFFFFF;gradientColor=none;opacity=90;strokeColor=#007FFF;fontColor=#000000;" parent="1" vertex="1">
          <mxGeometry x="108.63" y="850" width="80.75" height="21" as="geometry" />
        </mxCell>
        <mxCell id="LsrXWWI1KCtOwhEkaV5J-5" value="" style="group;fontColor=#000000;" parent="1" vertex="1" connectable="0">
          <mxGeometry x="430" y="290" width="276" height="30" as="geometry" />
        </mxCell>
        <mxCell id="wBf12aJpdh6WzyQz_9V8-7" value="" style="endArrow=block;html=1;fontFamily=Courier New;curved=1;strokeColor=#FF8000;strokeWidth=3;endFill=1;fontColor=#000000;" parent="LsrXWWI1KCtOwhEkaV5J-5" edge="1">
          <mxGeometry width="50" height="50" relative="1" as="geometry">
            <mxPoint x="-20" y="85" as="sourcePoint" />
            <mxPoint x="130" y="15" as="targetPoint" />
            <Array as="points">
              <mxPoint y="15" />
            </Array>
          </mxGeometry>
        </mxCell>
        <mxCell id="wBf12aJpdh6WzyQz_9V8-8" value="Focus of the bindings" style="text;html=1;strokeColor=none;fillColor=none;align=center;verticalAlign=middle;whiteSpace=wrap;rounded=0;fontFamily=Helvetica;fontColor=#000000;" parent="LsrXWWI1KCtOwhEkaV5J-5" vertex="1">
          <mxGeometry x="106" width="170" height="30" as="geometry" />
        </mxCell>
        <mxCell id="wBf12aJpdh6WzyQz_9V8-36" value="" style="endArrow=none;html=1;strokeWidth=2;strokeColor=#007FFF;fontFamily=Helvetica;fontSize=10;startSize=6;curved=1;endFill=0;startArrow=classicThin;startFill=0;fontColor=#000000;" parent="1" edge="1">
          <mxGeometry width="50" height="50" relative="1" as="geometry">
            <mxPoint x="409" y="944" as="sourcePoint" />
            <mxPoint x="149" y="944" as="targetPoint" />
          </mxGeometry>
        </mxCell>
        <mxCell id="wBf12aJpdh6WzyQz_9V8-37" value="&lt;div style=&quot;font-size: 8px;&quot;&gt;HTTP/1.1 200 OK&lt;/div&gt;&lt;div style=&quot;font-size: 8px;&quot;&gt;&lt;div style=&quot;font-size: 8px;&quot; class=&quot;result notranslate&quot;&gt;&lt;font style=&quot;font-size: 8px;&quot;&gt;Date: Sun, 18 Oct 2012 10:36:20 GMT&lt;/font&gt;&lt;/div&gt;&lt;/div&gt;&lt;div style=&quot;font-size: 8px;&quot; class=&quot;result notranslate&quot;&gt;&lt;font style=&quot;font-size: 8px;&quot;&gt;&lt;div style=&quot;font-size: 8px;&quot; class=&quot;result notranslate&quot;&gt;Access-Control-Allow-Origin: *&lt;/div&gt;&lt;div style=&quot;font-size: 8px;&quot; class=&quot;result notranslate&quot;&gt;Connection: Keep-Alive&lt;/div&gt;&lt;div style=&quot;font-size: 8px;&quot; class=&quot;result notranslate&quot;&gt;&lt;br&gt;&lt;/div&gt;&lt;/font&gt;&lt;/div&gt;&lt;div style=&quot;font-size: 8px;&quot; class=&quot;result notranslate&quot;&gt;&lt;font style=&quot;font-size: 8px;&quot;&gt;(response has no body)&lt;/font&gt;&lt;/div&gt;" style="text;whiteSpace=wrap;html=1;fontSize=8;fontFamily=Courier New;fillColor=#FFFFFF;gradientColor=none;opacity=90;strokeColor=#007FFF;fontColor=#000000;" parent="1" vertex="1">
          <mxGeometry x="204" y="874" width="175" height="84" as="geometry" />
        </mxCell>
        <mxCell id="wBf12aJpdh6WzyQz_9V8-34" value="" style="endArrow=blockThin;html=1;strokeWidth=2;strokeColor=#FF6666;fontFamily=Helvetica;fontSize=10;startSize=6;curved=1;endFill=1;fontColor=#000000;" parent="1" edge="1">
          <mxGeometry width="50" height="50" relative="1" as="geometry">
            <mxPoint x="409" y="795" as="sourcePoint" />
            <mxPoint x="151.5" y="795" as="targetPoint" />
          </mxGeometry>
        </mxCell>
        <mxCell id="wBf12aJpdh6WzyQz_9V8-27" value="POST&amp;nbsp;/actions/goto&amp;nbsp;HTTP/1.1&lt;br style=&quot;font-size: 8px;&quot;&gt;&lt;br style=&quot;font-size: 8px;&quot;&gt;Host: example.com&lt;br style=&quot;font-size: 8px;&quot;&gt;&lt;div style=&quot;font-size: 8px;&quot;&gt;Content-Type: application/json&lt;/div&gt;&lt;div style=&quot;font-size: 8px;&quot;&gt;Content-Length: 27&lt;/div&gt;&lt;div style=&quot;font-size: 8px;&quot;&gt;&lt;br style=&quot;font-size: 8px;&quot;&gt;&lt;/div&gt;&lt;div style=&quot;font-size: 8px;&quot;&gt;{&lt;/div&gt;&lt;div style=&quot;font-size: 8px;&quot;&gt;&amp;nbsp; &amp;nbsp; &quot;x&quot;:12,&lt;/div&gt;&lt;div style=&quot;font-size: 8px;&quot;&gt;&amp;nbsp; &amp;nbsp; &quot;y&quot;:100&lt;/div&gt;&lt;div style=&quot;font-size: 8px;&quot;&gt;}&lt;/div&gt;" style="text;whiteSpace=wrap;html=1;fontSize=8;fontFamily=Courier New;fillColor=#FFFFFF;gradientColor=none;opacity=90;strokeColor=#FF6666;fontColor=#000000;" parent="1" vertex="1">
          <mxGeometry x="206.5" y="735" width="172.5" height="110" as="geometry" />
        </mxCell>
        <mxCell id="wBf12aJpdh6WzyQz_9V8-10" value="" style="endArrow=block;html=1;strokeColor=#FF8000;strokeWidth=2;fontFamily=Helvetica;curved=1;startSize=6;endFill=1;fontColor=#000000;" parent="1" edge="1">
          <mxGeometry width="50" height="50" relative="1" as="geometry">
            <mxPoint x="330" y="392" as="sourcePoint" />
            <mxPoint x="560" y="392" as="targetPoint" />
          </mxGeometry>
        </mxCell>
        <mxCell id="wBf12aJpdh6WzyQz_9V8-11" value="intent" style="text;html=1;strokeColor=none;fillColor=none;align=left;verticalAlign=middle;whiteSpace=wrap;rounded=0;fontFamily=Helvetica;fontColor=#000000;" parent="1" vertex="1">
          <mxGeometry x="564" y="377" width="100" height="30" as="geometry" />
        </mxCell>
        <mxCell id="wBf12aJpdh6WzyQz_9V8-12" value="" style="endArrow=none;html=1;strokeColor=#FFD966;strokeWidth=2;fontFamily=Helvetica;startSize=6;curved=1;fillColor=#fff2cc;fontColor=#000000;" parent="1" edge="1">
          <mxGeometry width="50" height="50" relative="1" as="geometry">
            <mxPoint x="430" y="399" as="sourcePoint" />
            <mxPoint x="520" y="399" as="targetPoint" />
          </mxGeometry>
        </mxCell>
        <mxCell id="wBf12aJpdh6WzyQz_9V8-13" value="" style="endArrow=none;html=1;strokeColor=#FFD966;strokeWidth=2;fontFamily=Helvetica;startSize=6;curved=1;fillColor=#fff2cc;fontColor=#000000;" parent="1" edge="1">
          <mxGeometry width="50" height="50" relative="1" as="geometry">
            <mxPoint x="430" y="459" as="sourcePoint" />
            <mxPoint x="520" y="459" as="targetPoint" />
          </mxGeometry>
        </mxCell>
        <mxCell id="wBf12aJpdh6WzyQz_9V8-14" value="" style="endArrow=none;html=1;strokeColor=#FFD966;strokeWidth=2;fontFamily=Helvetica;startSize=6;curved=1;fillColor=#fff2cc;fontColor=#000000;" parent="1" edge="1">
          <mxGeometry width="50" height="50" relative="1" as="geometry">
            <mxPoint x="519" y="399" as="sourcePoint" />
            <mxPoint x="519" y="459" as="targetPoint" />
          </mxGeometry>
        </mxCell>
        <mxCell id="wBf12aJpdh6WzyQz_9V8-15" value="" style="endArrow=block;html=1;strokeColor=#FFD966;strokeWidth=2;fontFamily=Helvetica;startSize=6;curved=1;fillColor=#fff2cc;endFill=1;fontColor=#000000;" parent="1" edge="1">
          <mxGeometry width="50" height="50" relative="1" as="geometry">
            <mxPoint x="520" y="429" as="sourcePoint" />
            <mxPoint x="560" y="429" as="targetPoint" />
          </mxGeometry>
        </mxCell>
        <mxCell id="wBf12aJpdh6WzyQz_9V8-16" value="Specifies &lt;em&gt;how&lt;/em&gt;&amp;nbsp;the intent is realized" style="text;whiteSpace=wrap;html=1;fontFamily=Helvetica;fontColor=#000000;" parent="1" vertex="1">
          <mxGeometry x="567" y="415" width="200" height="24" as="geometry" />
        </mxCell>
        <mxCell id="wBf12aJpdh6WzyQz_9V8-20" value="What the Thing implements and expects" style="text;html=1;strokeColor=none;fillColor=none;align=center;verticalAlign=middle;whiteSpace=wrap;rounded=0;fontFamily=Helvetica;fontColor=#000000;" parent="1" vertex="1">
          <mxGeometry x="536" y="564" width="90" height="60" as="geometry" />
        </mxCell>
        <mxCell id="wBf12aJpdh6WzyQz_9V8-21" value="What the Consumer should do" style="text;html=1;strokeColor=none;fillColor=none;align=center;verticalAlign=middle;whiteSpace=wrap;rounded=0;fontFamily=Helvetica;fontColor=#000000;" parent="1" vertex="1">
          <mxGeometry x="693" y="564" width="90" height="60" as="geometry" />
        </mxCell>
        <mxCell id="wBf12aJpdh6WzyQz_9V8-22" value="" style="endArrow=oval;html=1;strokeColor=#000000;strokeWidth=2;fontFamily=Helvetica;startSize=6;curved=1;entryX=0;entryY=0.5;entryDx=0;entryDy=0;exitX=1;exitY=0.5;exitDx=0;exitDy=0;startArrow=oval;startFill=1;endFill=1;fontColor=#000000;" parent="1" edge="1">
          <mxGeometry width="50" height="50" relative="1" as="geometry">
            <mxPoint x="634" y="593" as="sourcePoint" />
            <mxPoint x="701" y="593" as="targetPoint" />
          </mxGeometry>
        </mxCell>
        <mxCell id="wBf12aJpdh6WzyQz_9V8-23" value="&lt;font style=&quot;font-size: 10px;&quot;&gt;contract&lt;/font&gt;" style="text;html=1;strokeColor=none;fillColor=none;align=center;verticalAlign=middle;whiteSpace=wrap;rounded=0;fontFamily=Helvetica;fontColor=#000000;" parent="1" vertex="1">
          <mxGeometry x="637" y="570" width="60" height="30" as="geometry" />
        </mxCell>
        <mxCell id="wBf12aJpdh6WzyQz_9V8-17" value="" style="endArrow=classic;html=1;strokeColor=#000000;strokeWidth=2;fontFamily=Helvetica;startSize=6;curved=1;fontColor=#000000;" parent="1" edge="1">
          <mxGeometry width="50" height="50" relative="1" as="geometry">
            <mxPoint x="660" y="494" as="sourcePoint" />
            <mxPoint x="580" y="564" as="targetPoint" />
            <Array as="points">
              <mxPoint x="660" y="524" />
              <mxPoint x="580" y="524" />
            </Array>
          </mxGeometry>
        </mxCell>
        <mxCell id="wBf12aJpdh6WzyQz_9V8-19" value="" style="endArrow=classic;html=1;strokeColor=#000000;strokeWidth=2;fontFamily=Helvetica;startSize=6;curved=1;fontColor=#000000;" parent="1" edge="1">
          <mxGeometry width="50" height="50" relative="1" as="geometry">
            <mxPoint x="660" y="494" as="sourcePoint" />
            <mxPoint x="740" y="564" as="targetPoint" />
            <Array as="points">
              <mxPoint x="660" y="524" />
              <mxPoint x="740" y="524" />
            </Array>
          </mxGeometry>
        </mxCell>
        <mxCell id="wBf12aJpdh6WzyQz_9V8-25" value="" style="endArrow=classic;html=1;strokeColor=#000000;strokeWidth=2;fontFamily=Helvetica;fontSize=10;startSize=6;curved=1;fontColor=#000000;" parent="1" edge="1">
          <mxGeometry width="50" height="50" relative="1" as="geometry">
            <mxPoint x="660.26" y="435" as="sourcePoint" />
            <mxPoint x="660" y="475" as="targetPoint" />
          </mxGeometry>
        </mxCell>
        <mxCell id="wBf12aJpdh6WzyQz_9V8-26" value="equals" style="text;html=1;strokeColor=none;fillColor=none;align=center;verticalAlign=middle;whiteSpace=wrap;rounded=0;fontSize=10;fontFamily=Helvetica;fontColor=#000000;" parent="1" vertex="1">
          <mxGeometry x="650" y="434" width="60" height="30" as="geometry" />
        </mxCell>
      </root>
    </mxGraphModel>
  </diagram>
</mxfile>
